<svg id="Layer_1" data-name="Layer 1" xmlns="http://www.w3.org/2000/svg" viewBox="0 0 952.43 308.79"><defs><style>.cls-1{fill:none;stroke-linecap:round;stroke-width:10px;}.cls-1,.cls-2{stroke:#febd57;stroke-miterlimit:10;}.cls-2,.cls-4{fill:#febd57;}.cls-3{fill:#353535;}</style></defs><g id="doggo"><path class="cls-1" d="M355.12,125.38c-2.59,15.89-5.83,25.93-16.21,36s-25,12.32-35.34,11c-10.71-2.27-15.91-16.21-15.91-16.21-1.73,6.76-5.48,10.93-10,13.43h0c-11.78,6.55-28.78,1.83-28.78,1.83s-11.12-2.23-21.73-14.08a65.12,65.12,0,0,1-11.81-19.49c-10-24.84-8.25-64.48-7.51-75.72.12-2,.21-3.07.21-3.07a87.27,87.27,0,0,1,1.84-11.13c2.63-11.11,7.24-19.43,13.24-25.64C235.05,10,252.4,5.94,270.8,5.08c15.53-.74,35,3.24,54.49,22.69a78.81,78.81,0,0,1,6.59,7.55A109.22,109.22,0,0,1,348,65.17c.27.76.46,1.39.59,1.85C351.27,76.14,357.38,101.94,355.12,125.38Z" transform="translate(0.01 0)"/><path class="cls-1" d="M331.88,35.32s13.82-14,25.17-9.49,11.67,14.92,11.67,14.92,1.95,10-5.18,17.19A24.3,24.3,0,0,1,348,65.16" transform="translate(0.01 0)"/><path class="cls-1" d="M223.17,22.27S207.26,9.62,197.53,8.65,182.81,11.57,181,13.84s-5.19,8.75,1.95,17.83,26.94,16.27,26.94,16.27" transform="translate(0.01 0)"/><path class="cls-1" d="M139.15,273.61s13.38-4.89,21-4.25" transform="translate(0.01 0)"/><path class="cls-1" d="M213,293.31h0c.44.07,4,.72,8.84,1.63,5.14,1,16.87.65,23.37,0s18.15-3.88,19.45-8.11,2.27-14.92-.65-20.42-8.44-8.1-17.18-9.41-15.24,2.61-16.54,1.64,0-3.59,0-3.59,4.86-17.18,12-34.69c5.52-13.54,23.66-36.49,31.6-46.21,2.17-2.65,3.56-4.31,3.75-4.53h0" transform="translate(0.01 0)"/><path class="cls-1" d="M59.46,255.37s-28.27-6.45-36.7-2.88c0,0-12.65,3.89-16.54,10.37s2.27,11,7.46,13.94,11,8.11,23.35,9.41,29.2-6.69,29.2-6.69" transform="translate(0.01 0)"/><path class="cls-1" d="M231.21,258.78A116.89,116.89,0,0,0,218.53,266" transform="translate(0.01 0)"/><path class="cls-2" d="M100.88,260.29a62.78,62.78,0,0,1,21.74-3.91,41.61,41.61,0,0,1,6,.49,20.09,20.09,0,0,1,6.66,2.15,17.26,17.26,0,0,1,8.54,11.52,22.19,22.19,0,0,1,.39,6.8,25,25,0,0,1-1.45,6.44,22.17,22.17,0,0,1-1.41,3.1l-.43.74-.41.64c-.26.43-.55.85-.83,1.27a40.87,40.87,0,0,1-3.8,4.7,42.52,42.52,0,0,1-9.34,7.45,41.79,41.79,0,0,1-5.39,2.71l-1.53.57-.25.09-.3.08-.37.11-.7.18c-.91.24-1.82.46-2.73.67a95.17,95.17,0,0,1-11,1.81,67.14,67.14,0,0,1-11.43.25,38.13,38.13,0,0,1-12-2.64,25,25,0,0,1-5.77-3.35,30.88,30.88,0,0,1-4.53-4.47,53.52,53.52,0,0,1-6.32-9.84,101.45,101.45,0,0,1-4.47-10.19A98.73,98.73,0,0,1,56.37,267c-.93-3.63-1.59-7.29-2.18-10.78v-.46c-.81-10-1.48-20.06-1.79-30.19-.14-5.07-.23-10.14-.06-15.35a50.68,50.68,0,0,1,.82-8.24,56.75,56.75,0,0,1,2.11-8,77.82,77.82,0,0,1,6.84-14.58,75.54,75.54,0,0,1,4.49-6.72l.17-.22.09-.12.19-.24.4-.45.66-.75,1.32-1.44c.88-.94,1.77-1.88,2.66-2.8A223.52,223.52,0,0,1,95,146.23a178.84,178.84,0,0,1,25.83-16.88,221.1,221.1,0,0,1,28.23-12.12c9.56-3.42,19.22-6.41,28.95-9.13s19.46-5.14,29.43-7.28a4.94,4.94,0,0,1,2.12,9.64h-.07c-9.56,2.16-19.2,4.72-28.7,7.45s-18.94,5.72-28.18,9.1a209.2,209.2,0,0,0-26.77,11.7,175.41,175.41,0,0,0-24.27,16A212.74,212.74,0,0,0,79.81,174.2c-.84.87-1.68,1.75-2.5,2.63l-1.21,1.33-.58.66-.22.25h0v0l-.12.15a63.1,63.1,0,0,0-3.89,5.71,66.58,66.58,0,0,0-5.88,12.53,46.69,46.69,0,0,0-1.71,6.47,41.39,41.39,0,0,0-.64,6.67c-.15,4.78-.06,9.71.09,14.63.33,9.86.91,19.79,1.66,29.68l0-.45a98.09,98.09,0,0,0,2,9.91,84.8,84.8,0,0,0,3,9.48,95.41,95.41,0,0,0,4,9.16,43.5,43.5,0,0,0,5,7.92,20.85,20.85,0,0,0,2.94,3A14.79,14.79,0,0,0,85,295.88a27.7,27.7,0,0,0,8.61,1.9A70.22,70.22,0,0,0,113.08,296q1.22-.27,2.4-.57l.92-.25.94-.35a33.08,33.08,0,0,0,11.19-7.64,30.69,30.69,0,0,0,2.84-3.49c.21-.3.43-.61.62-.93l.3-.47.24-.4a12.93,12.93,0,0,0,.78-1.69,14.79,14.79,0,0,0,.87-3.83,12.1,12.1,0,0,0-.16-3.7,7.2,7.2,0,0,0-3.61-4.94,10.63,10.63,0,0,0-3.35-1,36.6,36.6,0,0,0-4.56-.4c-6.4-.19-13.33.34-20.19.37h-.11A3.34,3.34,0,0,1,101,260.3Z" transform="translate(0.01 0)"/><path class="cls-2" d="M111.61,257.68c.36-.38.86-1,1.29-1.5s.88-1.1,1.31-1.66c.86-1.14,1.68-2.3,2.47-3.49a64,64,0,0,0,4.25-7.41,40.51,40.51,0,0,0,4.35-16.05c0-1.34-.07-2.81-.14-4.26,0-.72-.13-1.45-.2-2.17s-.14-1.45-.26-2.18a75,75,0,0,0-1.74-8.66,84.54,84.54,0,0,0-2.67-8.5,78.77,78.77,0,0,0-3.53-8.18v-.05a1.55,1.55,0,0,1,2.68-1.55,82.86,82.86,0,0,1,4.5,8.22,92,92,0,0,1,3.62,8.63,78.25,78.25,0,0,1,2.7,9c.2.77.35,1.55.5,2.33s.33,1.55.45,2.34c.22,1.59.48,3.13.6,4.84a47.83,47.83,0,0,1-3.26,19.41,71.9,71.9,0,0,1-4,8.86c-.77,1.43-1.57,2.83-2.43,4.21-.43.69-.86,1.38-1.32,2.07s-.89,1.32-1.5,2.12v.06a5,5,0,1,1-8-6.06A3.8,3.8,0,0,1,111.61,257.68Z" transform="translate(0.01 0)"/><path class="cls-2" d="M146.59,187.08c.23.23.64.83,1,1.29l1.1,1.49,2.09,3.08c1.41,2.05,2.72,4.15,4,6.28a117.4,117.4,0,0,1,6.84,13.35,79.24,79.24,0,0,1,4.79,14.63,37.4,37.4,0,0,1,.66,4c.16,1.33.36,2.72.39,3.95s.14,2.52.16,3.8,0,2.54,0,3.82a101.81,101.81,0,0,1-1.31,15.3l-.6,3.63a25.06,25.06,0,0,0-.36,3v2.78l-.06,1a12.65,12.65,0,0,0,0,2.61,6.16,6.16,0,0,0,.62,1.81,12.68,12.68,0,0,0,1.46,2.17c.61.76,1.31,1.53,2.06,2.3s1.64,1.65,2.47,2.43a58.24,58.24,0,0,0,10.63,8.19,32.66,32.66,0,0,0,11.81,4.32A22.84,22.84,0,0,0,206.06,291a23.13,23.13,0,0,0,5.24-2.79,14.4,14.4,0,0,0,2.06-1.76c.13-.14.28-.29.39-.43l.31-.39c.28-.4.61-.9.88-1.32a11.26,11.26,0,0,0,1.86-4.69,16.9,16.9,0,0,0-.44-5.62c-.1-.51-.26-1-.38-1.56a12.6,12.6,0,0,0-.44-1.45,22.73,22.73,0,0,0-1.16-2.74,21.13,21.13,0,0,0-3.42-4.9,20.71,20.71,0,0,0-4.66-3.78,21.32,21.32,0,0,0-2.7-1.36c-.47-.19-.95-.33-1.42-.5a9.62,9.62,0,0,0-1.48-.43A53.66,53.66,0,0,0,187.27,256c-2.34.05-4.69.14-7,.32s-4.76.44-7,.75h-.09a3.4,3.4,0,0,1-1.3-6.65c2.55-.58,5-1,7.48-1.37s5-.65,7.55-.83a58.2,58.2,0,0,1,15.7.72,16.12,16.12,0,0,1,2,.5c.68.21,1.38.4,2.06.64a29.2,29.2,0,0,1,3.91,1.76,29.7,29.7,0,0,1,12.08,12,30.33,30.33,0,0,1,1.81,3.93c.24.68.48,1.38.69,2s.38,1.29.54,2a26.4,26.4,0,0,1,.87,8.89,18.94,18.94,0,0,1-1.09,4.82,23.73,23.73,0,0,1-2,4.12c-.37.62-.71,1.14-1.11,1.74l-.8,1.08c-.27.33-.54.62-.82.94a23.74,23.74,0,0,1-3.43,3.06,33.37,33.37,0,0,1-24.57,6.2,43.24,43.24,0,0,1-15.54-5.63,68.67,68.67,0,0,1-12.5-9.69c-.94-.89-1.8-1.73-2.75-2.7a35.26,35.26,0,0,1-2.79-3.18,22.12,22.12,0,0,1-1.32-1.85c-.21-.33-.43-.65-.63-1l-.58-1.1a16,16,0,0,1-1.6-5.13,21.72,21.72,0,0,1,0-4.7l.06-.8v-2.7a34.45,34.45,0,0,1,.54-4.29l.65-3.59a93,93,0,0,0,1.37-13.83c.06-2.32.08-4.67,0-7,0-1.21-.1-2.25-.16-3.34s-.2-2.21-.38-3.31a101,101,0,0,0-3-13.54c-1.31-4.55-2.84-9.1-4.44-13.67l-2.44-6.86-1.24-3.46-.61-1.75c-.2-.63-.39-1.1-.62-2a.89.89,0,0,1,1.49-.86Z" transform="translate(0.01 0)"/><path class="cls-2" d="M235.47,141.44c-1.57,8.9-8.27,15.76-8.27,15.76h0a65.12,65.12,0,0,1-11.81-19.49c-10-24.84-8.25-64.48-7.51-75.72.67,0,15,1.12,19.34,6.49s8.91,16.54,10.53,34.69C238.78,114.83,238.13,126.2,235.47,141.44Z" transform="translate(0.01 0)"/><path class="cls-2" d="M167.06,154.15c-20.77,17.79-54.18,6.48-54.18,6.48s-10.21-5.21-13.7-11.68a173,173,0,0,1,27-17.18c17-8.58,39-15.59,55.93-20.29h0S187.8,136.32,167.06,154.15Z" transform="translate(0.01 0)"/><path class="cls-2" d="M273.88,173.58c-7.94,9.71-26.08,32.67-31.6,46.21-7.13,17.51-12,34.69-12,34.69s-1.29,2.59,0,3.58l-11.75,7.38L208.4,255.11c.17-3.6,2.09-13.14,2.09-13.14s10.71-36.12,22.71-49.74,31.13-19.79,31.13-19.79h0Z" transform="translate(0.01 0)"/><path class="cls-2" d="M282.2,156.24,285,110.52a2.2,2.2,0,0,1,4.39,0l2.8,45.72a5,5,0,1,1-10,.62C282.19,156.66,282.19,156.44,282.2,156.24Z" transform="translate(0.01 0)"/><circle class="cls-2" cx="289.09" cy="100.47" r="11.43"/><circle class="cls-2" cx="310.08" cy="76.23" r="6.67"/><circle class="cls-2" cx="268.17" cy="76.23" r="6.67"/></g><g id="text"><path class="cls-3" d="M297.07,286.08l16.77-97a1.67,1.67,0,0,1,1.65-1.38h22.22a1.67,1.67,0,0,1,1.45.84l38.93,67.92a1.67,1.67,0,0,0,3.1-.59l9.89-66.75a1.66,1.66,0,0,1,1.65-1.42H411a1.67,1.67,0,0,1,1.67,1.65,1.94,1.94,0,0,1,0,.24l-13.05,97a1.67,1.67,0,0,1-1.66,1.45H372.77a1.64,1.64,0,0,1-1.44-.84l-37.85-65.49a1.67,1.67,0,0,0-3.09.56l-10.51,64.37a1.67,1.67,0,0,1-1.65,1.4H298.72a1.67,1.67,0,0,1-1.67-1.69A1.23,1.23,0,0,1,297.07,286.08Z" transform="translate(0.01 0)"/><path class="cls-3" d="M590.51,169.13l-4.89,13.29a1.68,1.68,0,0,0,1,2.15,1.54,1.54,0,0,0,.56.1H605a1.64,1.64,0,0,0,1.31-.64l10.45-13.29a1.66,1.66,0,0,0-.25-2.33,1.71,1.71,0,0,0-1.06-.37h-23.4A1.66,1.66,0,0,0,590.51,169.13Z" transform="translate(0.01 0)"/><path class="cls-3" d="M637,187.66H546.57a8.34,8.34,0,0,0-8.22,6.87l-15.06,83.68a8.35,8.35,0,0,0,6.76,9.7,8.11,8.11,0,0,0,1.47.13H620a1.67,1.67,0,0,0,1.64-1.36l3.48-18.27a1.65,1.65,0,0,0-1.28-2,1.47,1.47,0,0,0-.36,0H549.1a1.68,1.68,0,0,1-1.68-1.68,1.73,1.73,0,0,1,0-.32L550,249.55a1.66,1.66,0,0,1,1.64-1.38h59.94a1.7,1.7,0,0,0,1.64-1.33L616.94,229a1.68,1.68,0,0,0-1.33-2,1.63,1.63,0,0,0-.31,0H555.09a1.68,1.68,0,0,1-1.68-1.68,1.73,1.73,0,0,1,0-.32L556,211a1.66,1.66,0,0,1,1.64-1.37H632.8a1.68,1.68,0,0,0,1.63-1.31l4.22-18.69a1.67,1.67,0,0,0-1.35-1.93Z" transform="translate(0.01 0)"/><path class="cls-3" d="M425.45,194.53,410.4,278.2a8.35,8.35,0,0,0,6.74,9.7,8.14,8.14,0,0,0,1.48.13h84.1a8.36,8.36,0,0,0,8.25-7l13.16-83.67a8.36,8.36,0,0,0-7-9.56,8,8,0,0,0-1.29-.1H433.67A8.36,8.36,0,0,0,425.45,194.53Zm61.16,71h-45.2a5,5,0,0,1-5-5,4.76,4.76,0,0,1,.07-.84l7.42-45.25a5,5,0,0,1,4.94-4.19h45.66a5,5,0,0,1,5,5,5.26,5.26,0,0,1-.08.89l-7.92,45.28a5,5,0,0,1-4.89,4.15Z" transform="translate(0.01 0)"/><path class="cls-4" d="M651.47,195.06l-.45,2.37a2.51,2.51,0,0,0,2,2.95,2,2,0,0,0,.42.05l4.27.12a2.5,2.5,0,0,0,2.56-2.25l.2-1.94h9.25a.85.85,0,0,1,.85.83.88.88,0,0,1,0,.17l-1,6.15a.85.85,0,0,1-.83.7h-14a7.53,7.53,0,0,0-7.39,6.12l-1.84,9.7a7.52,7.52,0,0,0,7.42,8.91h19.8a1.66,1.66,0,0,0,1.64-1.39l5.56-32.76a5,5,0,0,0-4.94-5.86H658.88A7.53,7.53,0,0,0,651.47,195.06Zm11.87,25.3h-5a2.51,2.51,0,0,1-2.51-2.51,2.57,2.57,0,0,1,.06-.55l.86-3.8a2.51,2.51,0,0,1,2.45-2h5.9a.85.85,0,0,1,.83.85c0,.05,0,.1,0,.15l-1.73,7.14A.84.84,0,0,1,663.34,220.36Z" transform="translate(0.01 0)"/><path class="cls-4" d="M667.81,175.94l-2.68,9.85a.83.83,0,0,0,.6,1,.76.76,0,0,0,.21,0h5a.84.84,0,0,0,.71-.39l6.08-9.85a.83.83,0,0,0-.26-1.14.81.81,0,0,0-.45-.13h-8.39A.83.83,0,0,0,667.81,175.94Z" transform="translate(0.01 0)"/><path class="cls-4" d="M838.08,254.22l-.44,2.36a2.51,2.51,0,0,0,2,2.95,2,2,0,0,0,.42.05l4.26.12a2.5,2.5,0,0,0,2.56-2.25l.2-2h9.26a.85.85,0,0,1,.84.84.78.78,0,0,1,0,.16l-1,6.16a.85.85,0,0,1-.83.7h-14a7.52,7.52,0,0,0-7.39,6.12l-1.84,9.7a7.51,7.51,0,0,0,6,8.78,7.4,7.4,0,0,0,1.41.13h19.79a1.66,1.66,0,0,0,1.64-1.38l5.63-32.72a5,5,0,0,0-4.94-5.86H845.47A7.51,7.51,0,0,0,838.08,254.22ZM850,279.51h-5a2.51,2.51,0,0,1-2.51-2.51,2.57,2.57,0,0,1,.06-.55l.86-3.8a2.5,2.5,0,0,1,2.45-2h5.89a.85.85,0,0,1,.83.85c0,.05,0,.1,0,.15l-1.73,7.14A.84.84,0,0,1,850,279.51Z" transform="translate(0.01 0)"/><path class="cls-4" d="M854.42,235.05l-2.67,9.89a.83.83,0,0,0,.8,1.05h5a.84.84,0,0,0,.71-.39l6.08-9.85a.83.83,0,0,0-.71-1.28h-8.38A.85.85,0,0,0,854.42,235.05Z" transform="translate(0.01 0)"/><path class="cls-4" d="M719.17,195.06l-.45,2.37a2.51,2.51,0,0,0,2,2.95,2,2,0,0,0,.42.05l4.27.12A2.51,2.51,0,0,0,728,198.3l.19-1.94h9.25a.83.83,0,0,1,.84.82,1.1,1.1,0,0,1,0,.18l-1,6.15a.84.84,0,0,1-.82.7h-14a7.53,7.53,0,0,0-7.39,6.12l-1.84,9.7a7.52,7.52,0,0,0,7.42,8.91h19.8a1.68,1.68,0,0,0,1.65-1.39l5.58-32.71a5,5,0,0,0-4.94-5.86H726.56A7.53,7.53,0,0,0,719.17,195.06ZM731,220.36h-5a2.5,2.5,0,0,1-2.5-2.5,2.6,2.6,0,0,1,.06-.56l.86-3.8a2.5,2.5,0,0,1,2.44-2h5.9a.85.85,0,0,1,.83.85c0,.05,0,.1,0,.15l-1.72,7.22a.86.86,0,0,1-.85.64Z" transform="translate(0.01 0)"/><path class="cls-4" d="M642.22,254.22l-.44,2.36a2.51,2.51,0,0,0,2,2.95,2,2,0,0,0,.42.05l4.27.12a2.51,2.51,0,0,0,2.57-2.25l.19-2h9.25a.83.83,0,0,1,.84.82,1.1,1.1,0,0,1,0,.18l-1,6.16a.85.85,0,0,1-.83.7h-14a7.53,7.53,0,0,0-7.39,6.12l-1.84,9.7a7.51,7.51,0,0,0,6,8.78,7.4,7.4,0,0,0,1.41.13h19.8a1.67,1.67,0,0,0,1.65-1.38l5.62-32.72a5,5,0,0,0-4.94-5.86H649.61A7.51,7.51,0,0,0,642.22,254.22Zm11.87,25.29h-5a2.5,2.5,0,0,1-2.5-2.5,2.6,2.6,0,0,1,.06-.56l.85-3.8a2.51,2.51,0,0,1,2.45-2h5.89a.85.85,0,0,1,.83.85c0,.05,0,.1,0,.15l-1.77,7.22A.83.83,0,0,1,654.09,279.51Z" transform="translate(0.01 0)"/><path class="cls-4" d="M694.26,254.22l-.44,2.36a2.51,2.51,0,0,0,2,2.95,2,2,0,0,0,.42.05l4.26.12a2.51,2.51,0,0,0,2.57-2.25l.19-2h9.26a.83.83,0,0,1,.84.82,1.1,1.1,0,0,1,0,.18l-1,6.16a.85.85,0,0,1-.83.7h-14a7.53,7.53,0,0,0-7.39,6.12l-1.84,9.7a7.51,7.51,0,0,0,6,8.78,7.4,7.4,0,0,0,1.41.13h19.79a1.67,1.67,0,0,0,1.65-1.38l5.62-32.72a5,5,0,0,0-4.94-5.86H701.65A7.53,7.53,0,0,0,694.26,254.22Zm11.87,25.29h-5a2.5,2.5,0,0,1-2.5-2.5,2.6,2.6,0,0,1,.06-.56l.85-3.8a2.51,2.51,0,0,1,2.45-2h5.89a.85.85,0,0,1,.83.85c0,.05,0,.1,0,.15L707,278.79A.84.84,0,0,1,706.13,279.51Z" transform="translate(0.01 0)"/><path class="cls-4" d="M706.11,175.94l-10.88,51.93a.83.83,0,0,0,.64,1l.17,0h9.52a.84.84,0,0,0,.82-.67l10.33-51.93a.83.83,0,0,0-.64-1l-.18,0h-9A.83.83,0,0,0,706.11,175.94Z" transform="translate(0.01 0)"/><path class="cls-4" d="M690.16,175.94l-10.89,51.93a.83.83,0,0,0,.66,1l.16,0h9.52a.84.84,0,0,0,.82-.67l10.33-51.93a.83.83,0,0,0-.66-1l-.16,0h-9A.81.81,0,0,0,690.16,175.94Z" transform="translate(0.01 0)"/><path class="cls-4" d="M681.06,235.17,670.17,287.1a.83.83,0,0,0,.66,1l.16,0h9.52a.84.84,0,0,0,.82-.67l10.33-51.94a.83.83,0,0,0-.64-1l-.18,0h-9A.82.82,0,0,0,681.06,235.17Z" transform="translate(0.01 0)"/><path class="cls-4" d="M757.44,180.26l-1.21,8a.83.83,0,0,1-.82.71h-2.79a.84.84,0,0,0-.83.76l-.56,6a.84.84,0,0,0,.77.91h1.35a.83.83,0,0,1,.84.82,1.1,1.1,0,0,1,0,.18l-4,22.46a7.53,7.53,0,0,0,6.1,8.72,8.17,8.17,0,0,0,1.31.11h7.08a.83.83,0,0,0,.84-.82v-7.44a.83.83,0,0,0-.82-.84h-2.9a.83.83,0,0,1-.84-.82,1.1,1.1,0,0,1,0-.18l3.17-21.67a.83.83,0,0,1,.8-.71l6.55-.24a.83.83,0,0,0,.8-.73l.66-5.61a.84.84,0,0,0-.75-.93h-4.4a.85.85,0,0,1-.84-.84.78.78,0,0,1,0-.16l1.35-7.41a.83.83,0,0,0-.66-1l-.16,0h-9.23A.83.83,0,0,0,757.44,180.26Z" transform="translate(0.01 0)"/><path class="cls-4" d="M786.45,239.48l-1.21,8a.84.84,0,0,1-.83.71h-2.78a.83.83,0,0,0-.83.75l-.56,6a.84.84,0,0,0,.75.91h1.37a.83.83,0,0,1,.84.82,1.1,1.1,0,0,1,0,.18l-4,22.47a7.52,7.52,0,0,0,7.4,8.83h7.09a.86.86,0,0,0,.84-.84v-7.47a.84.84,0,0,0-.84-.83h-2.89a.85.85,0,0,1-.85-.83.88.88,0,0,1,0-.17l3.17-21.67a.83.83,0,0,1,.8-.71l6.55-.24a.84.84,0,0,0,.8-.73l.66-5.61a.82.82,0,0,0-.72-.92h-4.42a.85.85,0,0,1-.85-.83.88.88,0,0,1,0-.17l1.35-7.41a.83.83,0,0,0-.64-1l-.18,0h-9.23A.83.83,0,0,0,786.45,239.48Z" transform="translate(0.01 0)"/><path class="cls-4" d="M813.81,180.26l-1.2,8a.87.87,0,0,1-.83.71H809a.85.85,0,0,0-.84.76l-.55,6a.84.84,0,0,0,.75.91h1.36a.85.85,0,0,1,.85.83.88.88,0,0,1,0,.17l-4,22.46a7.52,7.52,0,0,0,7.4,8.83H821a.83.83,0,0,0,.83-.83h0v-7.42a.83.83,0,0,0-.82-.84h-2.9a.85.85,0,0,1-.85-.83.88.88,0,0,1,0-.17l3.17-21.67a.83.83,0,0,1,.8-.71l7.27-.26.85-7.25h-5.26a.85.85,0,0,1-.84-.84.78.78,0,0,1,0-.16l1.35-7.41a.83.83,0,0,0-.66-1l-.16,0h-9.23A.86.86,0,0,0,813.81,180.26Z" transform="translate(0.01 0)"/><path class="cls-4" d="M835.15,180.26l-1.21,8a.83.83,0,0,1-.82.71h-3.93l-.62,7.25h2.56a.85.85,0,0,1,.85.83.88.88,0,0,1,0,.17l-4.08,22.84a7.52,7.52,0,0,0,7.4,8.83h7.09a.85.85,0,0,0,.84-.84h0v-7.42a.85.85,0,0,0-.84-.84h-2.89a.83.83,0,0,1-.84-.82,1.1,1.1,0,0,1,0-.18l3.22-21.63a.82.82,0,0,1,.79-.71l6.55-.24a.81.81,0,0,0,.8-.73l.66-5.61A.82.82,0,0,0,850,189h-4.42a.85.85,0,0,1-.84-.84.78.78,0,0,1,0-.16l1.34-7.41a.83.83,0,0,0-.64-1l-.18,0H836A.83.83,0,0,0,835.15,180.26Z" transform="translate(0.01 0)"/><path class="cls-4" d="M775.64,194.26l-5.49,26.59a6.69,6.69,0,0,0,5.25,7.87,6.3,6.3,0,0,0,1.3.13h15.5a6.67,6.67,0,0,0,6.58-5.5l4.79-26.59a6.67,6.67,0,0,0-5.38-7.76,6.75,6.75,0,0,0-1.19-.11H782.18A6.67,6.67,0,0,0,775.64,194.26Zm12.48,25.1h-6.24a1.67,1.67,0,0,1-1.67-1.65,2,2,0,0,1,0-.35l4-19.12a1.69,1.69,0,0,1,1.63-1.3h5.73a1.68,1.68,0,0,1,1.68,1.68,1.73,1.73,0,0,1,0,.32l-3.52,19.12a1.66,1.66,0,0,1-1.62,1.3Z" transform="translate(0.01 0)"/><path class="cls-4" d="M888.42,194.26l-5.49,26.59a6.68,6.68,0,0,0,5.23,7.87,6.4,6.4,0,0,0,1.31.13H905a6.7,6.7,0,0,0,6.58-5.5l4.79-26.59A6.67,6.67,0,0,0,911,189a7,7,0,0,0-1.2-.11H895A6.67,6.67,0,0,0,888.42,194.26Zm12.46,25.1h-6.2a1.67,1.67,0,0,1-1.67-1.67,1.84,1.84,0,0,1,0-.33l4-19.12a1.68,1.68,0,0,1,1.64-1.33h5.74a1.67,1.67,0,0,1,1.67,1.67,1.84,1.84,0,0,1,0,.33L902.55,218A1.67,1.67,0,0,1,900.88,219.36Z" transform="translate(0.01 0)"/><path class="cls-4" d="M856.09,174.68l-10.48,53.26a.83.83,0,0,0,.66,1l.16,0h9.09a.83.83,0,0,0,.82-.69l5.45-30.61a.83.83,0,0,1,.82-.69h6.85a.85.85,0,0,1,.84.84.78.78,0,0,1,0,.16l-4.94,30a.83.83,0,0,0,.66,1l.16,0H875a.84.84,0,0,0,.83-.72l4.68-33.53a5,5,0,0,0-4.25-5.65,4.73,4.73,0,0,0-.75,0h-10.4a.85.85,0,0,1-.83-.87.57.57,0,0,1,0-.13l2.83-12.9a.83.83,0,0,0-.64-1l-.18,0h-9.39A.85.85,0,0,0,856.09,174.68Z" transform="translate(0.01 0)"/><path class="cls-4" d="M924.05,189.61l-7.77,38.33a.83.83,0,0,0,.66,1l.16,0h9.66a.84.84,0,0,0,.82-.68l5.72-30.63a.84.84,0,0,1,.82-.68h5.76a.85.85,0,0,1,.84.84.78.78,0,0,1,0,.16l-5,30a.83.83,0,0,0,.66,1l.16,0h10a.85.85,0,0,0,.83-.71l5-33.49a5,5,0,0,0-4.19-5.69,5.52,5.52,0,0,0-.81-.06H924.88A.84.84,0,0,0,924.05,189.61Z" transform="translate(0.01 0)"/><path class="cls-4" d="M874.57,248.82l-7.77,38.29a.83.83,0,0,0,.66,1l.16,0h9.66a.84.84,0,0,0,.82-.68l5.72-30.63a.83.83,0,0,1,.82-.68h5.72a.83.83,0,0,1,.84.82,1.1,1.1,0,0,1,0,.18l-4.94,30.05a.83.83,0,0,0,.66,1l.16,0h10a.85.85,0,0,0,.83-.71l5-33.52a5,5,0,0,0-4.19-5.69,5.52,5.52,0,0,0-.81-.06h-22.5A.84.84,0,0,0,874.57,248.82Z" transform="translate(0.01 0)"/><path class="cls-4" d="M729.93,248.76l-9.7,51.47a.83.83,0,0,0,.66,1l.16,0h9a.84.84,0,0,0,.82-.67l2.39-11.84a.84.84,0,0,1,.82-.67l18.12.07a.83.83,0,0,0,.82-.71l6.13-38.35a.83.83,0,0,0-.64-1l-.18,0H730.75A.84.84,0,0,0,729.93,248.76Zm13.3,31.67h-7.15a.83.83,0,0,1-.84-.82,1.1,1.1,0,0,1,0-.18l3.86-21.79a.84.84,0,0,1,.82-.69H747a.85.85,0,0,1,.84.84.78.78,0,0,1,0,.16l-3.76,21.79a.84.84,0,0,1-.83.69Z" transform="translate(0.01 0)"/><path class="cls-4" d="M765.24,248.76l-7.46,38.35a.83.83,0,0,0,.64,1l.18,0,9.82-.06a.83.83,0,0,0,.81-.67l7.46-38.29a.83.83,0,0,0-.66-1l-.16,0h-9.81A.84.84,0,0,0,765.24,248.76Z" transform="translate(0.01 0)"/><path class="cls-4" d="M767.63,244l2.87-8.14a.85.85,0,0,1,.79-.56h8.29a.84.84,0,0,1,.84.84.88.88,0,0,1-.11.42l-4.78,8.14a.82.82,0,0,1-.72.41h-6.39a.83.83,0,0,1-.84-.82A.93.93,0,0,1,767.63,244Z" transform="translate(0.01 0)"/><path class="cls-4" d="M805.57,248.94v38.29a.83.83,0,0,0,.83.83h0l12.68.07a.85.85,0,0,0,.78-.53l15.22-38.28a.83.83,0,0,0-.46-1.08.87.87,0,0,0-.32-.06h-9.57a.85.85,0,0,0-.8.57l-6.53,19.58a.85.85,0,0,1-1.08.51.86.86,0,0,1-.55-.78L816,249a.83.83,0,0,0-.81-.85h-8.79A.85.85,0,0,0,805.57,248.94Z" transform="translate(0.01 0)"/><path class="cls-4" d="M911.4,248.83l-5.94,30.28a7.51,7.51,0,0,0,5.89,8.85,7.16,7.16,0,0,0,1.46.15h8.93a.85.85,0,0,1,.83.87.57.57,0,0,1,0,.13l-.94,4.52a.83.83,0,0,1-.82.66h-6.73a.83.83,0,0,1-.83-.83h0v-2.32a.84.84,0,0,0-.83-.84l-7.94-.12a.85.85,0,0,0-.85.74l-1.08,9.41a.82.82,0,0,0,.72.92h26.11a.83.83,0,0,0,.81-.65l11.7-51.51a.83.83,0,0,0-.66-1l-.16,0h-8.94a.85.85,0,0,0-.82.66l-6.68,30.11a.83.83,0,0,1-.81.66h-6.7a.85.85,0,0,1-.84-.84.78.78,0,0,1,0-.16l5.79-29.42a.83.83,0,0,0-.66-1,.5.5,0,0,0-.17,0l-9,.06A.84.84,0,0,0,911.4,248.83Z" transform="translate(0.01 0)"/></g></svg>