<?xml version="1.0" standalone="no"?><svg xmlns:xlink="http://www.w3.org/1999/xlink" xmlns="http://www.w3.org/2000/svg" viewBox="0 0 1000 600" preserveAspectRatio="xMaxYMax slice"><g transform="scale(1.2406947890818858)"><rect x="0" y="0" width="806.0000000000001" height="483.6" fill="#ffffff"/><polygon points="88.66,88.66 153.14,153.14 88.66,153.14" fill="#ffefdb"/><polygon points="330.46,88.66 394.94,88.66 394.94,153.14" fill="#3a95c4"/><rect x="491.66" y="88.66000000000001" width="64.48" height="64.48" fill="#ffffff"/><rect x="652.86" y="88.66000000000001" width="64.48" height="64.48" fill="#ffffff"/><polygon points="685.1,120.9 717.34,120.9 717.34,153.14000000000001" fill="#ffcf8f"/><rect x="88.66000000000001" y="169.26000000000002" width="64.48" height="64.48" fill="#ffffff"/><polygon points="120.9,169.26 153.14000000000001,169.26 153.14000000000001,201.5" fill="#ffb047"/><rect x="330.46000000000004" y="169.26000000000002" width="64.48" height="64.48" fill="#ffffff"/><polygon points="330.46,169.26 362.7,169.26 362.7,201.5" fill="#1b84bb"/><polygon points="362.7,169.26 394.94,169.26 362.7,201.5" fill="#ffb046"/><polygon points="330.46,201.5 362.7,233.74 330.46,233.74" fill="#ffc981"/><polygon points="362.7,201.5 394.94,201.5 362.7,233.74" fill="#c7afb8"/><rect x="572.26" y="169.26000000000002" width="64.48" height="64.48" fill="#ffffff"/><polygon points="604.5,169.26 636.74,201.5 604.5,201.5" fill="#1e85bc"/><polygon points="636.74,201.5 636.74,233.74 604.5,233.74" fill="#ffbb60"/><rect x="652.86" y="169.26000000000002" width="64.48" height="64.48" fill="#ffffff"/><polygon points="652.86,201.5 685.1,233.74 652.86,233.74" fill="#8b586a"/><polygon points="169.26,249.86 233.74,249.86 169.26,314.34000000000003" fill="#b9d9ea"/><rect x="249.86" y="249.86" width="64.48" height="64.48" fill="#ffffff"/><polygon points="282.1,249.86 314.34000000000003,249.86 282.1,282.1" fill="#b0d4e8"/><polygon points="282.1,282.1 282.1,314.34000000000003 249.86,314.34000000000003" fill="#3d96c5"/><polygon points="394.94,249.86 394.94,314.34000000000003 330.46,314.34000000000003" fill="#ffba5f"/><rect x="411.06000000000006" y="249.86" width="64.48" height="64.48" fill="#ffffff"/><polygon points="411.06,249.86 443.3,249.86 411.06,282.1" fill="#ddced3"/><polygon points="443.3,249.86 475.54,282.1 443.3,282.1" fill="#ffb149"/><polygon points="411.06,282.1 443.3,282.1 443.3,314.34000000000003" fill="#ffba5e"/><polygon points="443.3,282.1 475.54,282.1 443.3,314.34000000000003" fill="#ded0d5"/><polygon points="491.66,249.86 556.14,249.86 491.66,314.34000000000003" fill="#ffdbaa"/><polygon points="572.26,249.86 636.74,249.86 572.26,314.34000000000003" fill="#d6e9f3"/><polygon points="733.46,249.86 797.94,314.34000000000003 733.46,314.34000000000003" fill="#956777"/><polygon points="330.46,330.46 394.94,394.94 330.46,394.94" fill="#ffd49b"/><polygon points="411.06,330.46 475.54,330.46 475.54,394.94" fill="#66233b"/><polygon points="491.66,330.46 556.14,394.94 491.66,394.94" fill="#926374"/><polygon points="717.34,330.46 717.34,394.94 652.86,394.94" fill="#7bb8d8"/><polygon points="169.26,411.06 233.74,475.54 169.26,475.54" fill="#64abd1"/><rect x="330.46000000000004" y="411.06000000000006" width="64.48" height="64.48" fill="#ffffff"/><polygon points="330.46,411.06 362.7,443.3 330.46,443.3" fill="#ffe8ca"/><polygon points="330.46,443.3 362.7,443.3 330.46,475.54" fill="#ffd193"/><polygon points="475.54,411.06 475.54,475.54 411.06,475.54" fill="#439ac7"/><rect x="733.46" y="411.06000000000006" width="64.48" height="64.48" fill="#ffffff"/><polygon points="765.7,411.06 765.7,443.3 733.46,443.3" fill="#459bc8"/></g></svg>