<?xml version="1.0" standalone="no"?><svg xmlns:xlink="http://www.w3.org/1999/xlink" xmlns="http://www.w3.org/2000/svg" viewBox="0 0 1000 416.66341030195383" preserveAspectRatio="xMaxYMax slice"><g transform="scale(0.8880994671403197)"><rect x="0" y="0" width="1126" height="469.16666666666663" fill="#ffffff"/><polygon points="304.96,117.29 351.88,117.29 351.88,164.21" fill="#ffcb87"/><polygon points="492.62,117.29 539.54,164.21 492.62,164.21" fill="#d6c4cb"/><rect x="774.125" y="117.29166666666666" width="46.916666666666664" height="46.916666666666664" fill="#ffffff"/><polygon points="774.13,140.75 797.59,164.21 774.13,164.21" fill="#9bc9e1"/><polygon points="797.58,140.75 821.0400000000001,164.21 797.58,164.21" fill="#ffebd2"/><rect x="867.9583333333334" y="117.29166666666666" width="46.916666666666664" height="46.916666666666664" fill="#ffffff"/><polygon points="867.96,117.29 891.4200000000001,140.75 867.96,140.75" fill="#ffc982"/><polygon points="914.88,117.29 914.88,140.75 891.42,140.75" fill="#ffe6c4"/><polygon points="211.13,211.13 258.05,258.05 211.13,258.05" fill="#edf5fa"/><polygon points="304.96,211.13 351.88,211.13 304.96,258.05" fill="#885467"/><rect x="492.62499999999994" y="211.125" width="46.916666666666664" height="46.916666666666664" fill="#ffffff"/><polygon points="492.62,211.13 516.08,211.13 492.62,234.59" fill="#83bcda"/><polygon points="539.5400000000001,211.13 539.5400000000001,234.59 516.08,234.59" fill="#ffc880"/><polygon points="539.5400000000001,234.58 539.5400000000001,258.04 516.08,258.04" fill="#c2deed"/><rect x="586.4583333333334" y="211.125" width="46.916666666666664" height="46.916666666666664" fill="#ffffff"/><polygon points="609.9200000000001,211.13 609.9200000000001,234.59 586.46,234.59" fill="#ffe1ba"/><polygon points="609.92,211.13 633.38,211.13 609.92,234.59" fill="#6a2a41"/><polygon points="586.46,234.58 609.9200000000001,234.58 586.46,258.04" fill="#ffaa3a"/><polygon points="609.92,234.58 633.38,234.58 609.92,258.04" fill="#2f8fc1"/><polygon points="680.29,211.13 727.2099999999999,211.13 727.2099999999999,258.05" fill="#aa8592"/><rect x="774.125" y="211.125" width="46.916666666666664" height="46.916666666666664" fill="#ffffff"/><polygon points="774.13,211.13 797.59,211.13 797.59,234.59" fill="#fffaf3"/><polygon points="797.58,211.13 821.0400000000001,234.59 797.58,234.59" fill="#d6c4ca"/><polygon points="774.13,234.58 797.59,234.58 774.13,258.04" fill="#ffcb87"/><polygon points="797.58,234.58 821.0400000000001,258.04 797.58,258.04" fill="#5da7cf"/><polygon points="961.79,211.13 1008.7099999999999,211.13 1008.7099999999999,258.05" fill="#ffd39a"/><polygon points="117.29,304.96 164.21,304.96 164.21,351.88" fill="#e0eef6"/><polygon points="304.96,304.96 351.88,304.96 351.88,351.88" fill="#ffc67b"/><polygon points="398.79,304.96 445.71000000000004,304.96 398.79,351.88" fill="#f0f7fb"/><polygon points="492.62,304.96 539.54,351.88 492.62,351.88" fill="#fff7ed"/><rect x="586.4583333333334" y="304.9583333333333" width="46.916666666666664" height="46.916666666666664" fill="#ffffff"/><polygon points="586.46,304.96 609.9200000000001,304.96 586.46,328.41999999999996" fill="#af8c98"/><polygon points="609.92,304.96 633.38,304.96 633.38,328.41999999999996" fill="#ffd59e"/><polygon points="609.9200000000001,328.42 609.9200000000001,351.88 586.46,351.88" fill="#ffd297"/><polygon points="609.92,328.42 633.38,351.88 609.92,351.88" fill="#b6d8e9"/><polygon points="680.29,304.96 727.2099999999999,304.96 727.2099999999999,351.88" fill="#8e5d6f"/><polygon points="821.05,304.96 821.05,351.88 774.13,351.88" fill="#d8c7cd"/><polygon points="867.96,304.96 914.88,351.88 867.96,351.88" fill="#6db0d4"/><polygon points="351.88,398.79 351.88,445.71000000000004 304.96,445.71000000000004" fill="#ad8996"/><polygon points="586.46,398.79 633.38,398.79 586.46,445.71000000000004" fill="#4b9ec9"/><polygon points="774.13,398.79 821.05,445.71000000000004 774.13,445.71000000000004" fill="#ffb859"/></g></svg>